<svg width="13" height="15" viewBox="0 0 13 15" fill="none" xmlns="http://www.w3.org/2000/svg">
<path d="M7.13416 0.364995C6.89935 0.131236 6.5815 0 6.25016 0C5.91883 0 5.60098 0.131236 5.36617 0.364995L0.366165 5.365C0.250077 5.48108 0.15799 5.6189 0.0951633 5.77058C0.0323367 5.92225 0 6.08482 0 6.24899C0 6.58056 0.131714 6.89854 0.366165 7.13299C0.600617 7.36745 0.918601 7.49916 1.25016 7.49916C1.58173 7.49916 1.89971 7.36745 2.13416 7.13299L5.00016 4.26699V13.249C5.00016 13.5805 5.13186 13.8985 5.36628 14.1329C5.6007 14.3673 5.91864 14.499 6.25016 14.499C6.58169 14.499 6.89963 14.3673 7.13405 14.1329C7.36847 13.8985 7.50016 13.5805 7.50016 13.249V4.26699L10.3662 7.13299C10.4823 7.24908 10.6201 7.34117 10.7717 7.404C10.9234 7.46682 11.086 7.49916 11.2502 7.49916C11.4143 7.49916 11.5769 7.46682 11.7286 7.404C11.8803 7.34117 12.0181 7.24908 12.1342 7.13299C12.2503 7.01691 12.3423 6.87909 12.4052 6.72741C12.468 6.57574 12.5003 6.41317 12.5003 6.24899C12.5003 6.08482 12.468 5.92225 12.4052 5.77058C12.3423 5.6189 12.2503 5.48108 12.1342 5.365L7.13416 0.364995Z" fill="black"/>
</svg>
