<svg width="39" height="39" viewBox="0 0 39 39" fill="none" xmlns="http://www.w3.org/2000/svg">
<path d="M38.4696 33.718L30.8747 26.1244C30.5319 25.7817 30.0672 25.5913 29.5797 25.5913H28.338C30.4405 22.9026 31.6898 19.5209 31.6898 15.8422C31.6898 7.09091 24.5977 0 15.8449 0C7.09212 0 0 7.09091 0 15.8422C0 24.5935 7.09212 31.6844 15.8449 31.6844C19.5243 31.6844 22.9066 30.4353 25.5956 28.3332V29.5747C25.5956 30.0621 25.7861 30.5267 26.1289 30.8694L33.7238 38.463C34.4398 39.179 35.5977 39.179 36.3062 38.463L38.462 36.3076C39.1781 35.5916 39.1781 34.4339 38.4696 33.718ZM15.8449 25.5913C10.4592 25.5913 6.0942 21.2346 6.0942 15.8422C6.0942 10.4574 10.4515 6.09315 15.8449 6.09315C21.2307 6.09315 25.5956 10.4498 25.5956 15.8422C25.5956 21.227 21.2383 25.5913 15.8449 25.5913Z" fill="#41C8C9"/>
</svg>
