<svg width="281" height="100" viewBox="0 0 281 100" fill="none" xmlns="http://www.w3.org/2000/svg">
<path d="M52.1462 75.3123C51.3789 74.5324 50.9952 73.2178 50.9952 71.3749V59.726C50.9952 57.8831 51.3789 56.5811 52.1462 55.8137C52.9136 55.0464 54.2659 54.6627 56.1969 54.6627H67.8897C69.1163 54.6627 69.9968 55.0086 70.5378 55.7005C71.0724 56.3924 71.3429 57.2289 71.3429 58.2102C71.3429 59.1914 71.0661 60.0342 70.5126 60.745C69.9591 61.4494 69.0848 61.8017 67.8897 61.8017H60.7067C60.1218 61.8017 59.8324 62.1099 59.8324 62.72V68.5193C59.8324 69.1357 60.1218 69.4376 60.7067 69.4376H69.1792C70.4057 69.4376 71.2737 69.7835 71.7832 70.4754C72.2926 71.1673 72.5442 72.0038 72.5442 72.9851C72.5442 73.9663 72.2801 74.7965 71.7643 75.4695C71.2422 76.1426 70.3805 76.4822 69.1855 76.4822H56.2032C54.2722 76.4822 52.9199 76.0923 52.1525 75.306L52.1462 75.3123ZM55.1591 81.4575C56.8636 79.8599 59.3418 79.0611 62.5937 79.0611H82.803C86.0549 79.0611 88.5331 79.8599 90.2376 81.4575C91.9422 83.0551 92.7913 85.1874 92.7913 87.8543C92.7913 90.5212 91.9422 92.6597 90.2376 94.2511C88.5331 95.8487 86.0549 96.6475 82.803 96.6475H62.5937C59.3418 96.6475 56.8636 95.8424 55.1591 94.2322C53.4545 92.622 52.6054 90.496 52.6054 87.8543C52.6054 85.2125 53.4545 83.0488 55.1591 81.4575ZM62.7069 89.6783C63.2164 90.1564 63.9397 90.3891 64.8958 90.3891H80.5512C81.501 90.3891 82.2243 90.1501 82.7149 89.6783C83.2056 89.2003 83.4509 88.5965 83.4509 87.8606C83.4509 87.1247 83.2056 86.5208 82.7149 86.0428C82.2243 85.5648 81.501 85.3321 80.5512 85.3321H64.8958C63.946 85.3321 63.2164 85.5711 62.7069 86.0428C62.1974 86.5208 61.9458 87.1247 61.9458 87.8606C61.9458 88.5965 62.1974 89.2066 62.7069 89.6783ZM85.5643 54.3671C86.3002 53.6437 87.2814 53.2852 88.5079 53.2852C89.7344 53.2852 90.7094 53.6437 91.4327 54.3671C92.156 55.0904 92.5145 56.0465 92.5145 57.2415V77.6396H84.4572V69.1231H82.1551V77.6396H74.3306V57.1535C74.3306 55.9898 74.6828 55.0527 75.3873 54.3482C76.0917 53.6437 77.0478 53.2915 78.2429 53.2915C79.4379 53.2915 80.394 53.6437 81.0985 54.3482C81.8029 55.0527 82.1551 55.9898 82.1551 57.1535V61.9401H84.4572V57.2415C84.4572 56.0465 84.8283 55.0841 85.5643 54.3671Z" fill="#41C8C9"/>
<path d="M123.995 69.2111C124.53 69.8842 124.8 70.7333 124.8 71.746C124.8 72.7586 124.53 73.6077 123.995 74.2996C123.461 74.9915 122.574 75.3375 121.347 75.3375H103.025C101.119 75.3375 99.7353 74.8846 98.861 73.9788C97.9867 73.0731 97.5464 71.746 97.5464 69.9974V58.6253C97.5464 57.273 97.9742 56.2414 98.8359 55.5181C99.6976 54.7948 100.786 54.4362 102.107 54.4362C103.427 54.4362 104.503 54.7885 105.327 55.493C106.157 56.1974 106.572 57.1786 106.572 58.4429V67.2361C106.572 67.6072 106.648 67.8588 106.805 67.9972C106.956 68.1356 107.22 68.2048 107.585 68.2048H121.354C122.58 68.2048 123.461 68.5444 124.002 69.2174L123.995 69.2111ZM101.553 80.6964C103.333 78.9919 105.881 78.1427 109.195 78.1427H127.153C130.468 78.1427 133.015 78.9856 134.795 80.6775C136.575 82.3632 137.468 84.6087 137.468 87.4014C137.468 90.1941 136.569 92.4333 134.776 94.1253C132.984 95.811 130.442 96.6601 127.159 96.6601H109.202C105.887 96.6601 103.339 95.811 101.559 94.1064C99.7794 92.4019 98.8862 90.169 98.8862 87.4077C98.8862 84.6465 99.7731 82.4136 101.559 80.709L101.553 80.6964ZM109.082 89.4456C109.648 89.9803 110.485 90.2507 111.592 90.2507H124.807C125.914 90.2507 126.738 89.9803 127.291 89.4456C127.845 88.911 128.121 88.2254 128.121 87.3951C128.121 86.5649 127.845 85.8856 127.291 85.3446C126.738 84.81 125.907 84.5395 124.807 84.5395H111.592C110.485 84.5395 109.648 84.81 109.082 85.3446C108.516 85.8793 108.233 86.5649 108.233 87.3951C108.233 88.2254 108.516 88.9047 109.082 89.4456ZM128.857 54.474C129.744 53.6752 130.839 53.2789 132.128 53.2789C133.323 53.2789 134.355 53.6312 135.21 54.3356C136.072 55.0401 136.562 56.0213 136.682 57.2793H137.927C139.217 57.2793 140.141 57.6315 140.714 58.336C141.28 59.0404 141.563 59.9147 141.563 60.9588C141.563 62.003 141.28 62.9087 140.714 63.5817C140.148 64.2547 139.217 64.5944 137.927 64.5944H136.732V66.9405H137.927C139.217 66.9405 140.141 67.2927 140.714 67.9972C141.28 68.7016 141.563 69.5759 141.563 70.6201C141.563 71.6642 141.28 72.5699 140.714 73.2429C140.148 73.916 139.217 74.2556 137.927 74.2556H136.732V76.9288H127.524V57.8202C127.524 56.3798 127.971 55.2602 128.857 54.4614V54.474Z" fill="#41C8C9"/>
<path d="M184.221 88.9613C184.881 89.7287 185.208 90.647 185.208 91.7225C185.208 92.7981 184.881 93.7101 184.221 94.4649C183.56 95.2197 182.573 95.5908 181.252 95.5908H146.079C144.758 95.5908 143.771 95.2134 143.11 94.4649C142.45 93.7101 142.123 92.7981 142.123 91.7225C142.123 90.647 142.45 89.7287 143.11 88.9613C143.771 88.1939 144.758 87.8102 146.079 87.8102H181.252C182.573 87.8102 183.56 88.1939 184.221 88.9613ZM167.716 63.0408C170.414 63.1037 172.974 63.7767 175.383 65.0661C177.792 66.3555 179.812 68.2865 181.441 70.8654C183.07 73.4442 184.019 76.608 184.296 80.3505H174.949C174.673 78.3251 174.031 76.5577 173.018 75.0544C172.006 73.5511 170.723 72.4064 169.175 71.6264C167.628 70.8465 165.942 70.4691 164.131 70.5006C162.011 73.4442 159.42 75.8281 156.35 77.6395C153.281 79.451 150.243 80.3568 147.236 80.3568C145.978 80.3568 144.928 79.9857 144.085 79.2498C143.242 78.5138 142.821 77.5137 142.821 76.2558C142.821 75.2746 143.11 74.4191 143.695 73.7021C144.28 72.9788 145.104 72.5133 146.18 72.2995C148.236 71.8403 150.167 70.9723 151.979 69.6955C153.79 68.4249 155.3 66.7895 156.514 64.7894C157.728 62.7955 158.483 60.5563 158.791 58.0655C158.973 56.6817 159.502 55.6502 160.382 54.9583C161.256 54.2664 162.357 53.9205 163.672 53.9205C164.986 53.9205 166.175 54.3419 167.031 55.1847C167.892 56.0276 168.32 57.1723 168.32 58.6127C168.32 59.7826 168.119 61.2545 167.722 63.0345L167.716 63.0408Z" fill="#41C8C9"/>
<path d="M190.919 94.9052C189.938 93.8297 189.448 92.4836 189.448 90.8546V90.5338C189.448 88.9047 189.932 87.609 190.901 86.6403C191.869 85.6717 193.316 85.1874 195.253 85.1874H219.884V84.2691C219.884 83.8414 219.62 83.6275 219.104 83.6275H192.536C191.706 83.6275 191.064 83.3822 190.605 82.8916C190.146 82.401 189.913 81.8034 189.913 81.099C189.913 80.3945 190.133 79.7467 190.58 79.256C191.026 78.7654 191.674 78.5201 192.536 78.5201H205.015V76.4948H191.523C189.284 76.4948 188.164 75.5136 188.164 73.5511C188.164 72.6014 188.448 71.8654 189.014 71.3434C189.58 70.8213 190.416 70.5635 191.523 70.5635H218.5C218.683 70.1672 218.947 69.425 219.28 68.3557H192.989C191.882 68.3557 191.033 68.1104 190.435 67.6198C189.838 67.1292 189.536 66.3933 189.536 65.4121C189.536 64.4308 189.838 63.7327 190.435 63.2232C191.033 62.7137 191.888 62.4621 192.989 62.4621H219.74V61.1287C219.74 60.8205 219.683 60.6003 219.576 60.4619C219.469 60.3236 219.249 60.2544 218.909 60.2544H193.404C192.328 60.2544 191.492 59.9776 190.894 59.4241C190.297 58.8706 189.995 58.0907 189.995 57.078C189.995 56.1282 190.297 55.3671 190.894 54.8011C191.492 54.235 192.328 53.9519 193.404 53.9519H223.469C225.312 53.9519 226.658 54.2727 227.52 54.9206C228.382 55.5621 228.81 56.7006 228.81 58.3297V63.393C228.81 66.0348 228.363 68.4249 227.476 70.576H227.891C228.998 70.576 229.835 70.8402 230.401 71.356C230.967 71.878 231.25 72.6139 231.25 73.5637C231.25 75.5261 230.13 76.5074 227.891 76.5074H214.399V78.5327H224.205C226.105 78.5327 227.445 78.8787 228.212 79.5705C228.979 80.2624 229.363 81.3443 229.363 82.8161V89.7664H200.266C199.989 89.7664 199.769 89.8419 199.599 89.9991C199.43 90.1501 199.348 90.3514 199.348 90.5967C199.348 90.842 199.423 91.0369 199.581 91.1753C199.732 91.3137 199.964 91.3829 200.272 91.3829H228.08C228.973 91.3829 229.621 91.6282 230.036 92.1188C230.451 92.6094 230.659 93.2258 230.659 93.9617C230.659 94.6977 230.451 95.3141 230.036 95.8047C229.621 96.2953 228.967 96.5406 228.08 96.5406H195.253C193.347 96.5406 191.907 96.0059 190.926 94.9304L190.919 94.9052Z" fill="#41C8C9"/>
<path d="M277.065 39.0701L257.215 35.076C256.667 34.7678 256.038 34.5917 255.365 34.5917C255.221 34.5917 255.076 34.6043 254.931 34.6169L83.1364 0.0729692C82.3124 -0.0905672 81.4633 0.0226565 80.7148 0.393758L2.09779 39.3846C0.229699 40.3092 -0.531374 42.5736 0.393235 44.4417C1.05367 45.7688 2.38712 46.5425 3.77718 46.5425C4.34327 46.5425 4.91565 46.4167 5.45028 46.1462L24.5274 36.68V96.2261C24.5274 98.308 26.2194 100 28.3013 100C30.3833 100 32.0753 98.308 32.0753 96.2261V35.0823C32.0753 34.3905 31.8866 33.7489 31.5595 33.1891L82.9099 7.71516L251.585 41.6364V96.2261C251.585 98.308 253.277 100 255.359 100C257.441 100 259.133 98.308 259.133 96.2261V43.1585L275.568 46.4607C277.613 46.8695 279.6 45.5487 280.015 43.5045C280.424 41.4603 279.103 39.4727 277.059 39.0638L277.065 39.0701Z" fill="white"/>
<path d="M53.0834 38.1455H55.8635V36.4535H56.9768V41.7307H51.9827V36.4535H53.0834V38.1455ZM55.8635 40.8313V39.0324H53.0834V40.8313H55.8635ZM60.3482 46.0644H53.1778V42.7182H54.3037V45.1587H60.3482V46.0707V46.0644ZM59.9016 38.8185H61.4426V39.7683H59.9016V43.4856H58.7757V35.6988H59.9016V38.8248V38.8185Z" fill="white"/>
<path d="M67.1098 40.4853H63.5623V42.9258C64.3486 42.9258 65.0719 42.9006 65.7386 42.8566C66.4053 42.8126 67.1035 42.7371 67.8331 42.6302L67.9275 43.5548C67.1538 43.6743 66.4116 43.7561 65.7009 43.8001C64.9901 43.8441 64.1724 43.863 63.2415 43.863H62.4364V39.6048H66.0091V37.5354H62.4113V36.6234H67.1098V40.4916V40.4853ZM70.8711 46.3097H69.7578V41.8691H67.6885V40.9319H69.7578V38.9695H67.7451V38.0449H69.7578V35.6799H70.8711V46.3097Z" fill="white"/>
<path d="M82.1992 41.7433H72.5191V40.8439H76.8151V39.718H73.7267V36.1705H81.0041V37.0574H74.84V38.8185H81.0796V39.718H77.9095V40.8439H82.2055V41.7433H82.1992ZM79.3058 42.6553C79.853 42.8063 80.2682 43.0264 80.5638 43.3158C80.8531 43.6051 81.0041 43.951 81.0041 44.3599C81.0041 44.7687 80.8594 45.1147 80.5701 45.404C80.2808 45.6933 79.8593 45.9135 79.3121 46.0582C78.7649 46.2028 78.1108 46.2846 77.3497 46.2909C76.5823 46.2909 75.9282 46.2091 75.3747 46.0582C74.8212 45.9072 74.3997 45.6871 74.1104 45.404C73.8148 45.1147 73.6701 44.7687 73.6701 44.3599C73.6701 43.951 73.8148 43.6051 74.1104 43.3158C74.406 43.0264 74.8274 42.8063 75.3747 42.6553C75.9282 42.5044 76.5823 42.4289 77.3497 42.4289C78.117 42.4289 78.7649 42.5044 79.3121 42.6553H79.3058ZM75.4627 43.58C75.0224 43.7624 74.8023 44.0202 74.8023 44.3599C74.8023 44.6995 75.0224 44.9574 75.469 45.1398C75.9156 45.3222 76.5383 45.404 77.3497 45.404C78.1485 45.4103 78.7712 45.3222 79.2178 45.1398C79.6644 44.9574 79.8845 44.6995 79.8845 44.3599C79.8845 44.0202 79.6644 43.7624 79.2178 43.58C78.7712 43.3975 78.1548 43.3032 77.3497 43.3032C76.5446 43.3032 75.9093 43.3975 75.469 43.58H75.4627Z" fill="white"/>
<path d="M92.6592 40.9697H88.3758V41.8943H91.439V44.3788H85.2623V45.3159H91.7346V46.1777H84.1616V43.5611H90.3257V42.756H84.149V41.8943H87.2499V40.9697H82.9917V40.0702H92.6592V40.9697ZM91.4138 39.2903H84.2308V36.0258H91.4138V39.2903ZM85.3315 38.4034H90.2879V36.9127H85.3315V38.4034Z" fill="white"/>
<path d="M101.723 37.7744H96.364V36.8875H98.5088V35.7616H99.6221V36.8875H101.729V37.7744H101.723ZM100.239 38.4977C100.591 38.6487 100.861 38.8626 101.05 39.1393C101.245 39.4161 101.339 39.7306 101.339 40.0954C101.339 40.4602 101.245 40.7747 101.05 41.0514C100.855 41.3282 100.584 41.5357 100.239 41.693C99.8926 41.844 99.49 41.9194 99.0434 41.9194C98.5969 41.9194 98.2132 41.844 97.8672 41.693C97.5213 41.542 97.2508 41.3282 97.0621 41.0514C96.8671 40.7747 96.7728 40.4602 96.7728 40.0954C96.7728 39.7306 96.8671 39.4161 97.0621 39.1393C97.2571 38.8626 97.5276 38.655 97.8672 38.4977C98.2132 38.3468 98.6031 38.2713 99.0434 38.2713C99.4837 38.2713 99.8863 38.3468 100.239 38.4977ZM98.3893 39.2211C98.2006 39.3028 98.0496 39.4224 97.9427 39.5733C97.8358 39.7243 97.7855 39.8941 97.7855 40.0954C97.7855 40.2966 97.8358 40.4665 97.9427 40.6237C98.0496 40.781 98.2006 40.8942 98.3956 40.9759C98.5906 41.0577 98.8107 41.1017 99.0497 41.1017C99.2887 41.1017 99.5277 41.0577 99.7164 40.9759C99.9114 40.8942 100.062 40.7747 100.169 40.6237C100.276 40.4728 100.327 40.2966 100.327 40.0954C100.327 39.7935 100.207 39.5544 99.9743 39.372C99.7416 39.1896 99.4334 39.1016 99.0434 39.1016C98.7918 39.1016 98.578 39.1456 98.383 39.2274L98.3893 39.2211ZM103.843 42.7371C104.384 42.8818 104.792 43.0956 105.082 43.3787C105.371 43.6617 105.516 44.0014 105.522 44.3976C105.522 44.7876 105.371 45.121 105.082 45.404C104.792 45.6871 104.377 45.8946 103.836 46.0456C103.295 46.1902 102.654 46.2594 101.905 46.2594C101.157 46.2594 100.515 46.1902 99.9743 46.0456C99.4334 45.9009 99.0246 45.6871 98.7352 45.404C98.4522 45.121 98.3138 44.7876 98.3138 44.3976C98.3138 44.0014 98.4522 43.6617 98.7352 43.3787C99.0183 43.0956 99.4271 42.8818 99.968 42.7371C100.509 42.5924 101.151 42.517 101.899 42.517C102.648 42.517 103.295 42.5924 103.83 42.7371H103.843ZM100.075 43.6429C99.6473 43.819 99.4334 44.0706 99.4334 44.3976C99.4271 44.7184 99.641 44.9637 100.075 45.1398C100.509 45.3159 101.119 45.3977 101.905 45.3914C102.692 45.3914 103.302 45.3097 103.736 45.1398C104.17 44.97 104.384 44.7184 104.39 44.3976C104.39 44.0643 104.17 43.8127 103.742 43.6429C103.314 43.4667 102.704 43.385 101.905 43.385C101.107 43.385 100.503 43.473 100.069 43.6491L100.075 43.6429ZM105.459 42.3597H104.396V39.4035H103.163V41.9949H102.113V35.8749H103.163V38.4789H104.396V35.6736H105.459V42.3597Z" fill="white"/>
<path d="M116.58 41.7433H106.899V40.8439H111.195V39.718H108.107V36.1705H115.384V37.0574H109.22V38.8185H115.46V39.718H112.29V40.8439H116.586V41.7433H116.58ZM113.686 42.6553C114.233 42.8063 114.649 43.0264 114.944 43.3158C115.234 43.6051 115.384 43.951 115.384 44.3599C115.384 44.7687 115.24 45.1147 114.95 45.404C114.661 45.6933 114.24 45.9135 113.693 46.0582C113.145 46.2028 112.491 46.2846 111.73 46.2909C110.963 46.2909 110.309 46.2091 109.755 46.0582C109.202 45.9072 108.78 45.6871 108.491 45.404C108.195 45.1147 108.051 44.7687 108.051 44.3599C108.051 43.951 108.195 43.6051 108.491 43.3158C108.786 43.0264 109.208 42.8063 109.755 42.6553C110.309 42.5044 110.963 42.4289 111.73 42.4289C112.497 42.4289 113.145 42.5044 113.693 42.6553H113.686ZM109.843 43.58C109.403 43.7624 109.183 44.0202 109.183 44.3599C109.183 44.6995 109.403 44.9574 109.849 45.1398C110.296 45.3222 110.919 45.404 111.73 45.404C112.529 45.4103 113.152 45.3222 113.598 45.1398C114.045 44.9574 114.265 44.6995 114.265 44.3599C114.265 44.0202 114.045 43.7624 113.598 43.58C113.152 43.3975 112.535 43.3032 111.73 43.3032C110.925 43.3032 110.29 43.3975 109.849 43.58H109.843Z" fill="white"/>
<path d="M129.996 44.8505H120.328V43.9133H122.612V40.479H123.737V43.9133H125.266V40.479H126.367V43.9133H130.002V44.8505H129.996ZM128.945 37.831V37.9631C128.939 38.8437 128.914 39.6173 128.864 40.2841C128.82 40.9508 128.713 41.7181 128.555 42.5924L127.455 42.4729C127.568 41.8754 127.656 41.3156 127.706 40.781C127.757 40.2526 127.794 39.7746 127.807 39.3469C127.82 38.9254 127.826 38.416 127.826 37.831V37.6046H121.328V36.6925H128.952V37.831H128.945Z" fill="white"/>
<path d="M134.908 38.8563C135.116 39.2777 135.411 39.6551 135.795 39.9822C136.179 40.3092 136.638 40.5671 137.154 40.7432L136.575 41.6301C135.99 41.4225 135.481 41.1206 135.053 40.7243C134.619 40.3218 134.286 39.8563 134.053 39.3217C133.82 39.9255 133.474 40.4539 133.015 40.9068C132.556 41.3596 132.015 41.6993 131.392 41.9257L130.801 41.0263C131.336 40.8439 131.807 40.5671 132.204 40.2149C132.606 39.8564 132.914 39.4475 133.128 38.9883C133.342 38.5292 133.449 38.0512 133.449 37.5606V37.3215H131.153V36.4095H136.871V37.3215H134.6V37.548C134.6 38.0008 134.701 38.4348 134.908 38.8563ZM138.003 42.517C138.544 42.6742 138.953 42.9006 139.242 43.2026C139.531 43.5045 139.676 43.863 139.676 44.2781C139.676 44.6932 139.531 45.0518 139.242 45.3537C138.953 45.6493 138.544 45.882 138.003 46.0393C137.468 46.1965 136.827 46.2783 136.084 46.2846C135.342 46.2846 134.701 46.2028 134.166 46.0393C133.625 45.882 133.216 45.6556 132.927 45.3537C132.638 45.0581 132.499 44.6995 132.499 44.2781C132.499 43.863 132.638 43.4982 132.927 43.2026C133.216 42.9006 133.625 42.6742 134.166 42.517C134.707 42.3597 135.342 42.2779 136.084 42.2779C136.827 42.2779 137.462 42.3597 137.997 42.517H138.003ZM134.267 43.4479C133.833 43.6428 133.619 43.9196 133.619 44.2781C133.619 44.5171 133.719 44.7184 133.914 44.8819C134.109 45.0455 134.399 45.1776 134.764 45.2656C135.135 45.3537 135.575 45.3914 136.091 45.3914C136.606 45.3914 137.047 45.3537 137.418 45.2656C137.789 45.1776 138.072 45.0518 138.267 44.8819C138.462 44.7121 138.563 44.5108 138.563 44.2781C138.563 43.9196 138.342 43.6428 137.915 43.4479C137.481 43.2529 136.871 43.1522 136.091 43.1522C135.311 43.1522 134.701 43.2529 134.267 43.4479ZM139.638 41.9823H138.512V39.2966H136.537V38.3719H138.512V35.6736H139.638V41.9823Z" fill="white"/>
<path d="M147.677 39.1582C147.834 39.5544 148.067 39.9193 148.375 40.24C148.683 40.5608 149.054 40.825 149.494 41.0137L148.865 41.8754C148.406 41.6678 148.016 41.3785 147.683 41.02C147.356 40.6615 147.098 40.2463 146.916 39.7746C146.721 40.2966 146.444 40.7684 146.092 41.1835C145.739 41.5986 145.324 41.9194 144.84 42.1459L144.211 41.2842C144.658 41.0703 145.047 40.781 145.368 40.4162C145.689 40.0513 145.934 39.6488 146.104 39.2148C146.268 38.7808 146.356 38.3468 146.356 37.9191V36.4032H147.444V37.9191C147.444 38.3405 147.519 38.7493 147.677 39.1519V39.1582ZM153.583 46.0582H146.243V42.6616H147.356V45.1461H153.583V46.0582ZM151.168 43.3221H150.092V39.2022H148.545V38.2776H150.092V35.8623H151.168V43.3158V43.3221ZM153.275 43.6303H152.212V35.6799H153.275V43.6303Z" fill="white"/>
<path d="M160.149 37.5417H156.325V39.5985H159.697V40.4979H156.325V42.8629C157.306 42.8629 158.124 42.8377 158.772 42.8C159.426 42.7623 160.08 42.6805 160.734 42.5673L160.854 43.4793C160.124 43.5988 159.395 43.6806 158.671 43.7246C157.948 43.7686 157.061 43.7938 156.011 43.8001H155.18V36.6296H160.137V37.5417H160.149ZM163.546 46.3097H162.433V40.5231H160.326V39.5985H162.433V35.6799H163.546V46.3097Z" fill="white"/>
</svg>
