<svg width="31" height="30" viewBox="0 0 31 30" fill="none" xmlns="http://www.w3.org/2000/svg">
<path d="M23.7101 29.98L7.05011 30C3.39011 30 0.380112 27.01 0.380112 23.34L0.360107 6.68C0.360107 3.02 3.35011 0.01 7.02011 0.01L23.6801 0C27.3401 0 30.3501 2.99 30.3501 6.66L30.3701 23.32C30.3701 26.99 27.3801 29.99 23.7101 29.99V29.98Z" fill="url(#paint0_radial_36_104)"/>
<path d="M23.7101 29.98L7.05011 30C3.39011 30 0.380112 27.01 0.380112 23.34L0.360107 6.68C0.360107 3.02 3.35011 0.01 7.02011 0.01L23.6801 0C27.3401 0 30.3501 2.99 30.3501 6.66L30.3701 23.32C30.3701 26.99 27.3801 29.99 23.7101 29.99V29.98Z" fill="url(#paint1_radial_36_104)"/>
<path d="M15.37 20.8299C12.16 20.8299 9.54004 18.2099 9.54004 14.9999C9.54004 11.7899 12.16 9.16992 15.37 9.16992C18.58 9.16992 21.2 11.7899 21.2 14.9999C21.2 18.2099 18.58 20.8299 15.37 20.8299ZM15.37 10.8399C13.07 10.8399 11.21 12.7099 11.21 14.9999C11.21 17.2899 13.08 19.1599 15.37 19.1599C17.66 19.1599 19.53 17.2899 19.53 14.9999C19.53 12.7099 17.66 10.8399 15.37 10.8399Z" fill="white"/>
<path d="M21.6101 10C22.3005 10 22.8601 9.44036 22.8601 8.75C22.8601 8.05964 22.3005 7.5 21.6101 7.5C20.9198 7.5 20.3601 8.05964 20.3601 8.75C20.3601 9.44036 20.9198 10 21.6101 10Z" fill="white"/>
<path d="M20.36 25.8299H10.37C7.16004 25.8299 4.54004 23.2099 4.54004 19.9999V9.99992C4.54004 6.78992 7.16004 4.16992 10.37 4.16992H20.36C23.57 4.16992 26.19 6.78992 26.19 9.99992V19.9899C26.19 23.1999 23.57 25.8199 20.36 25.8199V25.8299ZM10.37 5.83992C8.07004 5.83992 6.21004 7.70992 6.21004 9.99992V19.9899C6.21004 22.2899 8.08004 24.1499 10.37 24.1499H20.36C22.66 24.1499 24.52 22.2799 24.52 19.9899V9.99992C24.52 7.69992 22.65 5.83992 20.36 5.83992H10.37Z" fill="white"/>
<defs>
<radialGradient id="paint0_radial_36_104" cx="0" cy="0" r="1" gradientUnits="userSpaceOnUse" gradientTransform="translate(11.5201 30.02) scale(37.4 37.4)">
<stop stop-color="#FFDD55"/>
<stop offset="0.33" stop-color="#FF543F"/>
<stop offset="0.35" stop-color="#FC5245"/>
<stop offset="0.5" stop-color="#E64771"/>
<stop offset="0.64" stop-color="#D53E91"/>
<stop offset="0.76" stop-color="#CC39A4"/>
<stop offset="0.84" stop-color="#C837AB"/>
</radialGradient>
<radialGradient id="paint1_radial_36_104" cx="0" cy="0" r="1" gradientUnits="userSpaceOnUse" gradientTransform="translate(5.19011 -4.4027) scale(24.83 16.6361)">
<stop stop-color="#4168C9"/>
<stop offset="1" stop-color="#4168C9" stop-opacity="0"/>
</radialGradient>
</defs>
</svg>
