<svg width="46" height="30" viewBox="0 0 46 30" fill="none" xmlns="http://www.w3.org/2000/svg">
<path d="M45.3601 19.5298L43.2001 21.1698L41.0501 19.6698C41.0501 19.5098 41.0501 19.3498 41.0501 19.1798C41.0501 19.0198 41.0501 18.8598 41.0501 18.6898C40.9101 14.8098 39.9301 10.6598 37.9601 7.61977C36.4501 5.28977 34.5101 4.17977 32.3401 4.17977C30.0701 4.17977 28.2201 5.53977 26.1701 8.48977C26.1101 8.57977 26.0401 8.66977 25.9801 8.76977C25.9401 8.81977 25.9101 8.86977 25.8701 8.92977C25.7701 9.07977 25.6701 9.22977 25.5701 9.37977C24.6801 10.7598 23.7601 12.3598 22.7601 14.1298C22.6701 14.2998 22.5701 14.4598 22.4801 14.6298C22.4501 14.6698 22.4201 14.7198 22.4001 14.7598L22.1901 15.1198L20.9701 17.2698C18.1101 22.3398 17.3801 23.4998 15.9501 25.3898C13.4401 28.7198 11.3001 29.9898 8.4701 29.9898C5.1301 29.9898 3.00009 28.5398 1.69009 26.3598C0.620094 24.5898 0.100098 22.2598 0.100098 19.5998L4.9901 19.7698C4.9901 21.4998 5.36009 22.8198 5.87009 23.6298C6.52009 24.6698 7.4701 25.0798 8.4701 25.0798C9.7401 25.0798 10.9201 24.8098 13.1601 21.7098C14.9601 19.2198 17.0801 15.7398 18.5101 13.5498L19.8601 11.4898L20.1501 11.0398L20.4501 10.5998L20.9401 9.83977C21.6901 8.69977 22.4901 7.48977 23.3601 6.32977C23.4601 6.18977 23.5601 6.04977 23.6601 5.91977C23.7601 5.77977 23.8701 5.63977 23.9601 5.51977C24.8501 4.38977 25.7801 3.33977 26.7801 2.46977C28.6001 0.889766 30.5601 0.00976562 32.5301 0.00976562C35.8401 0.00976562 39.0001 1.92977 41.4201 5.52977C43.8901 9.20977 45.1801 13.7898 45.3201 18.5598C45.3201 18.7198 45.3201 18.8798 45.3201 19.0498C45.3201 19.2198 45.3201 19.3698 45.3201 19.5398L45.3601 19.5298Z" fill="#0081FB"/>
<path d="M3.97021 5.86C6.21021 2.41 9.44022 0 13.1502 0C15.3002 0 17.4302 0.63 19.6602 2.45C22.1002 4.44 24.7002 7.71 27.9402 13.1L29.1002 15.03C31.9102 19.7 33.5002 22.1 34.4402 23.23C35.6402 24.68 36.3902 25.07 37.4902 25.07C40.2602 25.07 41.0502 22.57 41.0502 19.66L45.3602 19.53C45.3602 22.57 44.7602 24.81 43.7402 26.58C42.7502 28.29 40.8302 30 37.5902 30C35.5802 30 33.7902 29.56 31.8202 27.71C30.3002 26.28 28.5302 23.75 27.1702 21.47L23.1102 14.7C21.0702 11.3 19.2102 8.77 18.1302 7.63C16.9702 6.4 15.5302 4.92 13.1502 4.92C11.2202 4.92 9.52022 6.26 8.15022 8.33L3.99021 5.86H3.97021Z" fill="url(#paint0_linear_36_98)"/>
<path d="M13.1501 4.91977C11.2201 4.91977 9.53012 6.25977 8.16012 8.32977C6.22012 11.2498 5.04012 15.6098 5.04012 19.7898C5.04012 21.5098 5.04012 22.8098 5.53012 23.6098L1.75012 26.3798C0.680122 24.5998 0.120117 22.3298 0.120117 19.6798C0.120117 14.8498 1.45012 9.74977 3.97012 5.86977C6.21012 2.41977 9.47012 0.00976562 13.1701 0.00976562L13.1501 4.92977V4.91977Z" fill="url(#paint1_linear_36_98)"/>
<path opacity="0.05" d="M20.4501 10.59L20.1501 11.03L19.8601 11.48C20.5601 12.49 21.3601 13.71 22.1901 15.11L22.4001 14.75C22.4001 14.75 22.4501 14.66 22.4801 14.62C22.5701 14.45 22.6701 14.29 22.7601 14.12C21.9401 12.78 21.1601 11.59 20.4501 10.59ZM23.6701 5.91C23.5601 6.05 23.4601 6.19 23.3701 6.32C24.0901 7.22 24.8201 8.23 25.5801 9.37C25.6801 9.21 25.7801 9.07 25.8801 8.92C25.9201 8.86 25.9501 8.81 25.9901 8.76C26.0501 8.66 26.1201 8.57 26.1801 8.48C25.4301 7.38 24.7001 6.38 23.9901 5.5C23.8901 5.63 23.7801 5.77 23.6901 5.9L23.6701 5.91Z" fill="black"/>
<path opacity="0.07" d="M20.4501 10.5902L20.1501 11.0302C20.8501 12.0302 21.6401 13.2302 22.4801 14.6202C22.5701 14.4502 22.6701 14.2902 22.7601 14.1202C21.9401 12.7802 21.1601 11.5902 20.4501 10.5902ZM23.3601 6.32016C24.0801 7.22016 24.8101 8.23016 25.5701 9.37016C25.6701 9.21016 25.7701 9.07016 25.8701 8.92016C25.1101 7.80016 24.3702 6.80016 23.6702 5.91016C23.5602 6.05016 23.4601 6.19016 23.3701 6.32016H23.3601Z" fill="black"/>
<defs>
<linearGradient id="paint0_linear_36_98" x1="40.7402" y1="15" x2="12.4402" y2="15" gradientUnits="userSpaceOnUse">
<stop stop-color="#0081FB"/>
<stop offset="0.99" stop-color="#0064E1"/>
</linearGradient>
<linearGradient id="paint1_linear_36_98" x1="6.64012" y1="22.9898" x2="6.64012" y2="3.44977" gradientUnits="userSpaceOnUse">
<stop stop-color="#0081FB"/>
<stop offset="0.99" stop-color="#0064E1"/>
</linearGradient>
</defs>
</svg>
