<svg width="281" height="100" viewBox="0 0 281 100" fill="none" xmlns="http://www.w3.org/2000/svg">
<path d="M52.1446 75.3068C51.3773 74.5269 50.9937 73.2125 50.9937 71.3698V59.7225C50.9937 57.8798 51.3773 56.5779 52.1446 55.8107C52.9118 55.0434 54.264 54.6598 56.1947 54.6598H67.8861C69.1125 54.6598 69.9929 55.0057 70.5338 55.6975C71.0684 56.3893 71.3388 57.2257 71.3388 58.2068C71.3388 59.1879 71.0621 60.0306 70.5086 60.7413C69.9552 61.4457 69.081 61.7979 67.8861 61.7979H60.704C60.1191 61.7979 59.8298 62.106 59.8298 62.7161V68.5146C59.8298 69.1309 60.1191 69.4328 60.704 69.4328H69.1754C70.4017 69.4328 71.2696 69.7787 71.779 70.4705C72.2884 71.1623 72.54 71.9987 72.54 72.9798C72.54 73.9609 72.2759 74.7911 71.7602 75.464C71.2382 76.1369 70.3766 76.4765 69.1816 76.4765H56.201C54.2703 76.4765 52.9181 76.0866 52.1508 75.3005L52.1446 75.3068ZM55.157 81.4512C56.8614 79.8538 59.3392 79.0551 62.5907 79.0551H82.7975C86.0489 79.0551 88.5268 79.8538 90.2312 81.4512C91.9355 83.0486 92.7845 85.1806 92.7845 87.8472C92.7845 90.5137 91.9355 92.652 90.2312 94.2432C88.5268 95.8406 86.0489 96.6393 82.7975 96.6393H62.5907C59.3392 96.6393 56.8614 95.8343 55.157 94.2243C53.4527 92.6143 52.6037 90.4886 52.6037 87.8472C52.6037 85.2058 53.4527 83.0423 55.157 81.4512ZM62.7039 89.671C63.2133 90.149 63.9366 90.3817 64.8925 90.3817H80.546C81.4956 90.3817 82.2189 90.1427 82.7094 89.671C83.2 89.193 83.4452 88.5893 83.4452 87.8535C83.4452 87.1177 83.2 86.5139 82.7094 86.0359C82.2189 85.558 81.4956 85.3253 80.546 85.3253H64.8925C63.9428 85.3253 63.2133 85.5643 62.7039 86.0359C62.1945 86.5139 61.9429 87.1177 61.9429 87.8535C61.9429 88.5893 62.1945 89.1993 62.7039 89.671ZM85.5584 54.3642C86.2942 53.6409 87.2753 53.2825 88.5017 53.2825C89.728 53.2825 90.7028 53.6409 91.4261 54.3642C92.1493 55.0874 92.5078 56.0434 92.5078 57.2383V77.6337H84.4515V69.1183H82.1497V77.6337H74.3261V57.1502C74.3261 55.9868 74.6783 55.0497 75.3827 54.3453C76.087 53.6409 77.043 53.2887 78.2379 53.2887C79.4328 53.2887 80.3888 53.6409 81.0931 54.3453C81.7975 55.0497 82.1497 55.9868 82.1497 57.1502V61.9362H84.4515V57.2383C84.4515 56.0434 84.8226 55.0811 85.5584 54.3642Z" fill="#41C8C9"/>
<path d="M123.985 69.2064C124.519 69.8793 124.79 70.7283 124.79 71.7409C124.79 72.7534 124.519 73.6024 123.985 74.2942C123.45 74.986 122.563 75.3319 121.337 75.3319H103.017C101.111 75.3319 99.7277 74.8791 98.8535 73.9735C97.9793 73.0679 97.5391 71.7409 97.5391 69.9925V58.6219C97.5391 57.2697 97.9667 56.2383 98.8283 55.5151C99.6899 54.7918 100.778 54.4334 102.099 54.4334C103.419 54.4334 104.495 54.7855 105.319 55.4899C106.149 56.1943 106.564 57.1754 106.564 58.4395V67.2316C106.564 67.6027 106.639 67.8542 106.797 67.9926C106.948 68.131 107.212 68.2001 107.576 68.2001H121.343C122.57 68.2001 123.45 68.5397 123.991 69.2127L123.985 69.2064ZM101.545 80.6902C103.325 78.9859 105.872 78.1369 109.186 78.1369H127.142C130.456 78.1369 133.003 78.9796 134.783 80.6714C136.563 82.3568 137.456 84.602 137.456 87.3944C137.456 90.1867 136.556 92.4256 134.764 94.1174C132.972 95.8029 130.431 96.6519 127.148 96.6519H109.193C105.878 96.6519 103.331 95.8029 101.551 94.0985C99.7717 92.3942 98.8786 90.1616 98.8786 87.4007C98.8786 84.6398 99.7654 82.4071 101.551 80.7028L101.545 80.6902ZM109.073 89.4383C109.639 89.9729 110.476 90.2433 111.583 90.2433H124.796C125.903 90.2433 126.727 89.9729 127.28 89.4383C127.834 88.9038 128.11 88.2182 128.11 87.3881C128.11 86.5579 127.834 85.8787 127.28 85.3379C126.727 84.8033 125.896 84.5329 124.796 84.5329H111.583C110.476 84.5329 109.639 84.8033 109.073 85.3379C108.507 85.8724 108.224 86.5579 108.224 87.3881C108.224 88.2182 108.507 88.8975 109.073 89.4383ZM128.846 54.4711C129.733 53.6724 130.827 53.2762 132.116 53.2762C133.311 53.2762 134.343 53.6284 135.198 54.3327C136.06 55.0371 136.55 56.0182 136.67 57.276H137.915C139.204 57.276 140.129 57.6282 140.701 58.3326C141.267 59.037 141.55 59.9111 141.55 60.9551C141.55 61.9991 141.267 62.9047 140.701 63.5777C140.135 64.2506 139.204 64.5902 137.915 64.5902H136.72V66.936H137.915C139.204 66.936 140.129 67.2882 140.701 67.9926C141.267 68.697 141.55 69.5711 141.55 70.6151C141.55 71.6591 141.267 72.5647 140.701 73.2377C140.135 73.9106 139.204 74.2502 137.915 74.2502H136.72V76.9231H127.513V57.8169C127.513 56.3767 127.959 55.2572 128.846 54.4585V54.4711Z" fill="#41C8C9"/>
<path d="M184.202 88.9541C184.863 89.7213 185.19 90.6395 185.19 91.715C185.19 92.7904 184.863 93.7023 184.202 94.457C183.542 95.2117 182.555 95.5827 181.234 95.5827H146.066C144.745 95.5827 143.757 95.2054 143.097 94.457C142.437 93.7023 142.11 92.7904 142.11 91.715C142.11 90.6395 142.437 89.7213 143.097 88.9541C143.757 88.1868 144.745 87.8032 146.066 87.8032H181.234C182.555 87.8032 183.542 88.1868 184.202 88.9541ZM167.7 63.0368C170.398 63.0997 172.958 63.7726 175.366 65.0619C177.775 66.3512 179.794 68.2819 181.423 70.8604C183.052 73.4389 184.001 76.6023 184.278 80.3443H174.932C174.656 78.3193 174.014 76.552 173.002 75.0489C171.989 73.5459 170.706 72.4012 169.159 71.6214C167.612 70.8415 165.926 70.4642 164.115 70.4956C161.996 73.4389 159.405 75.8225 156.336 77.6337C153.266 79.445 150.229 80.3506 147.223 80.3506C145.965 80.3506 144.915 79.9796 144.072 79.2437C143.229 78.5079 142.808 77.508 142.808 76.2501C142.808 75.2691 143.097 74.4137 143.682 73.6968C144.267 72.9735 145.091 72.5082 146.166 72.2943C148.223 71.8352 150.153 70.9673 151.965 69.6906C153.776 68.4203 155.285 66.7851 156.499 64.7852C157.713 62.7915 158.468 60.5526 158.776 58.0622C158.958 56.6786 159.486 55.6472 160.367 54.9554C161.241 54.2636 162.342 53.9177 163.656 53.9177C164.97 53.9177 166.159 54.339 167.014 55.1818C167.876 56.0245 168.304 57.1691 168.304 58.6093C168.304 59.7791 168.102 61.2507 167.706 63.0305L167.7 63.0368Z" fill="#41C8C9"/>
<path d="M190.9 94.8972C189.919 93.8218 189.429 92.4759 189.429 90.8471V90.5263C189.429 88.8975 189.913 87.6019 190.881 86.6334C191.85 85.6649 193.296 85.1806 195.233 85.1806H219.861V84.2624C219.861 83.8348 219.597 83.6209 219.082 83.6209H192.517C191.686 83.6209 191.045 83.3757 190.586 82.8851C190.127 82.3946 189.894 81.7971 189.894 81.0927C189.894 80.3884 190.114 79.7406 190.561 79.25C191.007 78.7595 191.655 78.5142 192.517 78.5142H204.994V76.4891H191.504C189.265 76.4891 188.146 75.508 188.146 73.5458C188.146 72.5962 188.429 71.8604 188.995 71.3384C189.561 70.8164 190.397 70.5585 191.504 70.5585H218.478C218.66 70.1623 218.924 69.4202 219.258 68.3511H192.969C191.863 68.3511 191.013 68.1058 190.416 67.6152C189.819 67.1247 189.517 66.3889 189.517 65.4078C189.517 64.4267 189.819 63.7286 190.416 63.2192C191.013 62.7098 191.869 62.4582 192.969 62.4582H219.717V61.1249C219.717 60.8168 219.66 60.5966 219.553 60.4583C219.446 60.3199 219.226 60.2507 218.887 60.2507H193.384C192.309 60.2507 191.473 59.974 190.875 59.4206C190.278 58.8672 189.976 58.0873 189.976 57.0748C189.976 56.1251 190.278 55.3641 190.875 54.7981C191.473 54.2321 192.309 53.9491 193.384 53.9491H223.446C225.289 53.9491 226.635 54.2698 227.496 54.9176C228.358 55.5591 228.786 56.6974 228.786 58.3263V63.389C228.786 66.0304 228.339 68.4202 227.452 70.5711H227.867C228.974 70.5711 229.811 70.8353 230.377 71.351C230.943 71.8729 231.226 72.6088 231.226 73.5584C231.226 75.5206 230.106 76.5017 227.867 76.5017H214.377V78.5268H224.182C226.081 78.5268 227.421 78.8727 228.188 79.5645C228.955 80.2563 229.339 81.338 229.339 82.8096V89.7591H200.246C199.969 89.7591 199.749 89.8345 199.579 89.9918C199.409 90.1427 199.328 90.3439 199.328 90.5892C199.328 90.8345 199.403 91.0295 199.56 91.1678C199.711 91.3062 199.944 91.3754 200.252 91.3754H228.056C228.949 91.3754 229.597 91.6206 230.012 92.1112C230.427 92.6017 230.635 93.2181 230.635 93.9539C230.635 94.6897 230.427 95.306 230.012 95.7966C229.597 96.2871 228.943 96.5324 228.056 96.5324H195.233C193.328 96.5324 191.888 95.9978 190.907 94.9224L190.9 94.8972Z" fill="#41C8C9"/>
<path d="M277.035 39.0692L257.187 35.0756C256.64 34.7674 256.011 34.5913 255.338 34.5913C255.193 34.5913 255.049 34.6039 254.904 34.6165L83.1308 0.0769286C82.3069 -0.0865872 81.4579 0.0266161 80.7095 0.397671L2.10241 39.3836C0.234553 40.3081 -0.526425 42.5722 0.398069 44.44C1.05842 45.767 2.3917 46.5406 3.78159 46.5406C4.3476 46.5406 4.91991 46.4148 5.45448 46.1444L24.5292 36.6793V96.2179C24.5292 98.2996 26.221 99.9914 28.3027 99.9914C30.3844 99.9914 32.0761 98.2996 32.0761 96.2179V35.0882C32.0761 34.3964 31.8874 33.7549 31.5604 33.1952L82.9107 7.73073L251.565 41.6477V96.2305C251.565 98.3122 253.256 100.004 255.338 100.004C257.42 100.004 259.112 98.3122 259.112 96.2305V43.1633L275.545 46.4651C277.589 46.8739 279.576 45.5532 279.991 43.5092C280.4 41.4653 279.079 39.478 277.035 39.0692Z" fill="#41C8C9"/>
<path d="M53.0816 38.1447H55.8614V36.4529H56.9745V41.7294H51.981V36.4529H53.0816V38.1447ZM55.8614 40.8301V39.0314H53.0816V40.8301H55.8614ZM60.3455 46.0626H53.1759V42.7168H54.3017V45.157H60.3455V46.0689V46.0626ZM59.899 38.8176H61.4398V39.7673H59.899V43.4841H58.7732V35.6982H59.899V38.8239V38.8176Z" fill="black"/>
<path d="M67.1063 40.4842H63.5592V42.9244C64.3454 42.9244 65.0686 42.8992 65.7352 42.8552C66.4019 42.8112 67.1 42.7357 67.8295 42.6288L67.9238 43.5533C67.1503 43.6728 66.4082 43.7545 65.6975 43.7985C64.9868 43.8426 64.1693 43.8614 63.2385 43.8614H62.4335V39.6037H66.0057V37.5346H62.4083V36.6227H67.1063V40.4905V40.4842ZM70.8671 46.3079H69.754V41.8678H67.6849V40.9307H69.754V38.9685H67.7415V38.044H69.754V35.6794H70.8671V46.3079Z" fill="black"/>
<path d="M82.1937 41.742H72.5148V40.8427H76.8103V39.7169H73.7223V36.1699H80.9988V37.0567H74.8355V38.8176H81.0743V39.7169H77.9046V40.8427H82.2V41.742H82.1937ZM79.3007 42.6539C79.8479 42.8049 80.263 43.025 80.5585 43.3143C80.8478 43.6036 80.9988 43.9495 80.9988 44.3583C80.9988 44.7671 80.8541 45.113 80.5648 45.4023C80.2755 45.6916 79.8542 45.9117 79.307 46.0563C78.7599 46.201 78.1058 46.2827 77.3448 46.289C76.5776 46.289 75.9235 46.2073 75.3701 46.0563C74.8166 45.9054 74.3953 45.6853 74.106 45.4023C73.8104 45.113 73.6657 44.7671 73.6657 44.3583C73.6657 43.9495 73.8104 43.6036 74.106 43.3143C74.4016 43.025 74.8229 42.8049 75.3701 42.6539C75.9235 42.503 76.5776 42.4275 77.3448 42.4275C78.1121 42.4275 78.7599 42.503 79.307 42.6539H79.3007ZM75.4581 43.5784C75.0179 43.7608 74.7978 44.0187 74.7978 44.3583C74.7978 44.6979 75.0179 44.9557 75.4644 45.1381C75.9109 45.3205 76.5335 45.4023 77.3448 45.4023C78.1435 45.4086 78.7662 45.3205 79.2127 45.1381C79.6592 44.9557 79.8793 44.6979 79.8793 44.3583C79.8793 44.0187 79.6592 43.7608 79.2127 43.5784C78.7662 43.396 78.1498 43.3017 77.3448 43.3017C76.5398 43.3017 75.9046 43.396 75.4644 43.5784H75.4581Z" fill="black"/>
<path d="M92.6525 40.9685H88.3696V41.893H91.4324V44.3771H85.2565V45.3142H91.728V46.1758H84.1559V43.5596H90.3192V42.7546H84.1433V41.893H87.2438V40.9685H82.9861V40.0691H92.6525V40.9685ZM91.4072 39.2893H84.2251V36.0253H91.4072V39.2893ZM85.3257 38.4025H90.2815V36.912H85.3257V38.4025Z" fill="black"/>
<path d="M101.715 37.7736H96.3567V36.8869H98.5013V35.7611H99.6145V36.8869H101.721V37.7736H101.715ZM100.231 38.4969C100.583 38.6478 100.853 38.8616 101.042 39.1383C101.237 39.4151 101.331 39.7295 101.331 40.0943C101.331 40.459 101.237 40.7735 101.042 41.0502C100.847 41.3269 100.577 41.5345 100.231 41.6917C99.8849 41.8426 99.4824 41.9181 99.0359 41.9181C98.5893 41.9181 98.2057 41.8426 97.8598 41.6917C97.5139 41.5408 97.2435 41.3269 97.0548 41.0502C96.8598 40.7735 96.7655 40.459 96.7655 40.0943C96.7655 39.7295 96.8598 39.4151 97.0548 39.1383C97.2498 38.8616 97.5202 38.6541 97.8598 38.4969C98.2057 38.3459 98.5956 38.2704 99.0359 38.2704C99.4761 38.2704 99.8786 38.3459 100.231 38.4969ZM98.3818 39.2201C98.1931 39.3019 98.0422 39.4213 97.9353 39.5723C97.8284 39.7232 97.778 39.893 97.778 40.0943C97.778 40.2955 97.8284 40.4653 97.9353 40.6226C98.0422 40.7798 98.1931 40.893 98.3881 40.9748C98.583 41.0565 98.8032 41.1005 99.0421 41.1005C99.2811 41.1005 99.5201 41.0565 99.7088 40.9748C99.9037 40.893 100.055 40.7735 100.162 40.6226C100.269 40.4716 100.319 40.2955 100.319 40.0943C100.319 39.7924 100.199 39.5534 99.9666 39.371C99.7339 39.1887 99.4258 39.1006 99.0359 39.1006C98.7843 39.1006 98.5705 39.1446 98.3755 39.2264L98.3818 39.2201ZM103.834 42.7357C104.375 42.8803 104.784 43.0942 105.073 43.3772C105.363 43.6602 105.507 43.9998 105.514 44.396C105.514 44.7859 105.363 45.1193 105.073 45.4023C104.784 45.6853 104.369 45.8928 103.828 46.0437C103.287 46.1884 102.646 46.2576 101.897 46.2576C101.149 46.2576 100.508 46.1884 99.9666 46.0437C99.4258 45.8991 99.017 45.6853 98.7277 45.4023C98.4447 45.1193 98.3063 44.7859 98.3063 44.396C98.3063 43.9998 98.4447 43.6602 98.7277 43.3772C99.0107 43.0942 99.4195 42.8803 99.9604 42.7357C100.501 42.591 101.143 42.5156 101.891 42.5156C102.639 42.5156 103.287 42.591 103.822 42.7357H103.834ZM100.067 43.6413C99.6396 43.8174 99.4258 44.069 99.4258 44.396C99.4195 44.7167 99.6333 44.962 100.067 45.1381C100.501 45.3142 101.111 45.396 101.897 45.3897C102.684 45.3897 103.294 45.3079 103.728 45.1381C104.161 44.9683 104.375 44.7167 104.382 44.396C104.382 44.0627 104.161 43.8111 103.734 43.6413C103.306 43.4652 102.696 43.3835 101.897 43.3835C101.099 43.3835 100.495 43.4715 100.061 43.6476L100.067 43.6413ZM105.451 42.3583H104.388V39.4025H103.155V41.9936H102.105V35.8743H103.155V38.478H104.388V35.6731H105.451V42.3583Z" fill="black"/>
<path d="M116.57 41.742H106.891V40.8427H111.186V39.7169H108.098V36.1699H115.375V37.0567H109.212V38.8176H115.45V39.7169H112.281V40.8427H116.576V41.742H116.57ZM113.677 42.6539C114.224 42.8049 114.639 43.025 114.935 43.3143C115.224 43.6036 115.375 43.9495 115.375 44.3583C115.375 44.7671 115.23 45.113 114.941 45.4023C114.652 45.6916 114.23 45.9117 113.683 46.0563C113.136 46.201 112.482 46.2827 111.721 46.289C110.954 46.289 110.3 46.2073 109.746 46.0563C109.193 45.9054 108.771 45.6853 108.482 45.4023C108.186 45.113 108.042 44.7671 108.042 44.3583C108.042 43.9495 108.186 43.6036 108.482 43.3143C108.778 43.025 109.199 42.8049 109.746 42.6539C110.3 42.503 110.954 42.4275 111.721 42.4275C112.488 42.4275 113.136 42.503 113.683 42.6539H113.677ZM109.834 43.5784C109.394 43.7608 109.174 44.0187 109.174 44.3583C109.174 44.6979 109.394 44.9557 109.84 45.1381C110.287 45.3205 110.91 45.4023 111.721 45.4023C112.52 45.4086 113.142 45.3205 113.589 45.1381C114.035 44.9557 114.255 44.6979 114.255 44.3583C114.255 44.0187 114.035 43.7608 113.589 43.5784C113.142 43.396 112.526 43.3017 111.721 43.3017C110.916 43.3017 110.281 43.396 109.84 43.5784H109.834Z" fill="black"/>
<path d="M129.984 44.8488H120.318V43.9117H122.601V40.4779H123.727V43.9117H125.255V40.4779H126.356V43.9117H129.991V44.8488H129.984ZM128.934 37.8302V37.9623C128.928 38.8428 128.903 39.6163 128.852 40.283C128.808 40.9496 128.701 41.7169 128.544 42.591L127.444 42.4715C127.557 41.8741 127.645 41.3144 127.695 40.7798C127.745 40.2515 127.783 39.7735 127.796 39.3459C127.808 38.9245 127.815 38.4151 127.815 37.8302V37.6038H121.318V36.6919H128.94V37.8302H128.934Z" fill="black"/>
<path d="M134.896 38.8553C135.104 39.2767 135.399 39.654 135.783 39.9811C136.167 40.3081 136.626 40.566 137.141 40.7421L136.563 41.6288C135.978 41.4213 135.468 41.1194 135.041 40.7232C134.607 40.3207 134.274 39.8553 134.041 39.3207C133.808 39.9245 133.462 40.4528 133.003 40.9056C132.544 41.3584 132.003 41.698 131.381 41.9244L130.789 41.0251C131.324 40.8427 131.796 40.566 132.192 40.2138C132.594 39.8553 132.902 39.4465 133.116 38.9874C133.33 38.5283 133.437 38.0503 133.437 37.5598V37.3208H131.142V36.4089H136.858V37.3208H134.588V37.5472C134.588 38 134.689 38.434 134.896 38.8553ZM137.99 42.5156C138.531 42.6728 138.94 42.8992 139.229 43.2011C139.519 43.503 139.663 43.8614 139.663 44.2765C139.663 44.6916 139.519 45.0501 139.229 45.3519C138.94 45.6475 138.531 45.8802 137.99 46.0374C137.456 46.1947 136.814 46.2764 136.072 46.2827C135.33 46.2827 134.689 46.201 134.154 46.0374C133.613 45.8802 133.204 45.6538 132.915 45.3519C132.626 45.0564 132.487 44.6979 132.487 44.2765C132.487 43.8614 132.626 43.4967 132.915 43.2011C133.204 42.8992 133.613 42.6728 134.154 42.5156C134.695 42.3583 135.33 42.2766 136.072 42.2766C136.814 42.2766 137.449 42.3583 137.984 42.5156H137.99ZM134.255 43.4464C133.821 43.6413 133.607 43.918 133.607 44.2765C133.607 44.5155 133.707 44.7167 133.902 44.8803C134.097 45.0438 134.387 45.1758 134.751 45.2639C135.123 45.3519 135.563 45.3897 136.078 45.3897C136.594 45.3897 137.034 45.3519 137.405 45.2639C137.777 45.1758 138.06 45.0501 138.254 44.8803C138.449 44.7105 138.55 44.5092 138.55 44.2765C138.55 43.918 138.33 43.6413 137.902 43.4464C137.468 43.2514 136.858 43.1508 136.078 43.1508C135.299 43.1508 134.689 43.2514 134.255 43.4464ZM139.626 41.981H138.5V39.2956H136.525V38.3711H138.5V35.6731H139.626V41.981Z" fill="black"/>
<path d="M147.663 39.1572C147.82 39.5534 148.053 39.9182 148.361 40.2389C148.669 40.5597 149.04 40.8238 149.481 41.0125L148.852 41.8741C148.392 41.6665 148.003 41.3773 147.669 41.0188C147.342 40.6603 147.084 40.2452 146.902 39.7735C146.707 40.2955 146.43 40.7672 146.078 41.1823C145.726 41.5974 145.311 41.9181 144.827 42.1445L144.198 41.2829C144.644 41.0691 145.034 40.7798 145.355 40.415C145.676 40.0503 145.921 39.6478 146.091 39.2138C146.254 38.7799 146.342 38.3459 146.342 37.9183V36.4026H147.43V37.9183C147.43 38.3396 147.506 38.7484 147.663 39.1509V39.1572ZM153.568 46.0563H146.229V42.6602H147.342V45.1444H153.568V46.0563ZM151.153 43.3206H150.078V39.2012H148.531V38.2767H150.078V35.8617H151.153V43.3143V43.3206ZM153.26 43.6287H152.197V35.6794H153.26V43.6287Z" fill="black"/>
<path d="M160.134 37.5409H156.31V39.5974H159.681V40.4968H156.31V42.8615C157.292 42.8615 158.109 42.8363 158.757 42.7986C159.411 42.7608 160.065 42.6791 160.719 42.5659L160.839 43.4778C160.109 43.5973 159.38 43.679 158.656 43.7231C157.933 43.7671 157.046 43.7923 155.996 43.7985H155.166V36.629H160.122V37.5409H160.134ZM163.53 46.3079H162.417V40.5219H160.31V39.5974H162.417V35.6794H163.53V46.3079Z" fill="black"/>
</svg>
